<svg width="24" height="24" viewBox="0 0 24 24" fill="none" xmlns="http://www.w3.org/2000/svg">
<path fill-rule="evenodd" clip-rule="evenodd" d="M6 19.5C6 19.2239 6.22386 19 6.5 19H17.5C17.7761 19 18 19.2239 18 19.5C18 19.7761 17.7761 20 17.5 20H6.5C6.22386 20 6 19.7761 6 19.5Z" fill="#292F33"/>
<path fill-rule="evenodd" clip-rule="evenodd" d="M7.00199 9C6.11728 9 5.66836 10.0644 6.28585 10.698L11.2858 16.698C11.6783 17.1007 12.3256 17.1007 12.7181 16.698L17.7181 10.698C18.3356 10.0644 17.8867 9 17.002 9L15.002 9V5C15.002 4.44772 14.5543 4 14.002 4L10.002 4C9.44971 4 9.002 4.44771 9.002 5V9H7.00199ZM12.002 16L7.00199 10H9.03267C9.58495 10 10.002 9.55228 10.002 9V5L14.002 5V9C14.002 9.55229 14.4804 10 15.0327 10H17.002L12.002 16Z" fill="#292F33"/>
</svg>
