<svg width="22" height="15" viewBox="0 0 22 15" fill="none" xmlns="http://www.w3.org/2000/svg">
<path fill-rule="evenodd" clip-rule="evenodd" d="M0 7.5C1.73 3.11 6 0 11 0C16 0 20.27 3.11 22 7.5C20.27 11.89 16 15 11 15C6 15 1.73 11.89 0 7.5ZM6 7.5C6 10.26 8.24 12.5 11 12.5C13.76 12.5 16 10.26 16 7.5C16 7.00919 15.9292 6.53483 15.7972 6.08659C15.3619 7.20633 14.2736 8 13 8C11.3431 8 10 6.65685 10 5C10 3.96324 10.5259 3.04932 11.3255 2.51044C11.2179 2.50352 11.1094 2.5 11 2.5C8.24 2.5 6 4.74 6 7.5Z" fill="#7F7F7F"/>
</svg>
