<svg width="19" height="18" viewBox="0 0 19 18" fill="none" xmlns="http://www.w3.org/2000/svg">
<path d="M0.629395 7.30732C0.629395 8.31311 0.817184 9.25842 1.19276 10.1433C1.56834 11.0217 2.09033 11.7952 2.75873 12.4636C3.42714 13.132 4.20057 13.654 5.07905 14.0295C5.95752 14.4051 6.89965 14.5929 7.90544 14.5929C8.67569 14.5929 9.40775 14.4783 10.1016 14.2492C10.7955 14.02 11.4352 13.7017 12.0209 13.2943L16.3178 17.6007C16.4323 17.7153 16.566 17.7981 16.7188 17.849C16.8716 17.9063 17.0275 17.9349 17.1867 17.9349C17.4159 17.9349 17.6196 17.8808 17.7978 17.7726C17.976 17.6707 18.1161 17.5275 18.2179 17.3429C18.3198 17.1647 18.3707 16.9578 18.3707 16.7222C18.3707 16.5695 18.3421 16.4199 18.2848 16.2735C18.2275 16.1271 18.1447 15.9934 18.0365 15.8724L13.7683 11.5946C14.2203 10.9963 14.5704 10.3342 14.8186 9.60853C15.0669 8.87647 15.191 8.1094 15.191 7.30732C15.191 6.30153 15.0032 5.3594 14.6277 4.48093C14.2521 3.59609 13.7301 2.82265 13.0617 2.16062C12.3933 1.49221 11.6198 0.970224 10.7414 0.594645C9.8629 0.212701 8.91759 0.0217285 7.90544 0.0217285C6.89965 0.0217285 5.95752 0.212701 5.07905 0.594645C4.20057 0.970224 3.42714 1.49221 2.75873 2.16062C2.09033 2.82265 1.56834 3.59609 1.19276 4.48093C0.817184 5.3594 0.629395 6.30153 0.629395 7.30732ZM2.36724 7.30732C2.36724 6.54343 2.51047 5.82728 2.79693 5.15888C3.08339 4.48411 3.48125 3.89528 3.99051 3.39239C4.49976 2.88313 5.0886 2.48527 5.757 2.19881C6.4254 1.91235 7.14155 1.76912 7.90544 1.76912C8.66932 1.76912 9.38547 1.91235 10.0539 2.19881C10.7286 2.48527 11.3175 2.88313 11.8204 3.39239C12.3296 3.89528 12.7275 4.48411 13.0139 5.15888C13.3004 5.82728 13.4436 6.54343 13.4436 7.30732C13.4436 8.07121 13.3004 8.79054 13.0139 9.4653C12.7275 10.1337 12.3296 10.7225 11.8204 11.2318C11.3175 11.7347 10.7286 12.1294 10.0539 12.4158C9.38547 12.7023 8.66932 12.8455 7.90544 12.8455C7.14155 12.8455 6.4254 12.7023 5.757 12.4158C5.0886 12.1294 4.49976 11.7347 3.99051 11.2318C3.48125 10.7225 3.08339 10.1337 2.79693 9.4653C2.51047 8.79054 2.36724 8.07121 2.36724 7.30732Z" fill="#7F7F7F"/>
</svg>
