<svg width="40" height="40" viewBox="0 0 40 40" fill="none" xmlns="http://www.w3.org/2000/svg">
<path d="M1.5 19.975C1.5 9.65991 9.34787 1.5 20.0498 1.5C30.7446 1.5 38.4999 9.49727 38.4999 19.975C38.4999 24.8887 36.5504 29.6008 33.0808 33.0748C29.6112 36.5487 24.9059 38.4999 20 38.4999C15.0941 38.4999 10.3887 36.5487 6.91918 33.0748C3.44955 29.6008 1.5 24.8887 1.5 19.975Z" stroke="#EFF2F8" stroke-width="3" stroke-miterlimit="10"/>
<path fill-rule="evenodd" clip-rule="evenodd" d="M37 20C37 29.3889 29.3888 37 20 37C11.1163 37 3.82413 30.1859 3.06515 21.4992C2.99304 20.6739 2.32839 20 1.49996 20C0.671531 20 -0.00589275 20.6739 0.0553669 21.5001C0.822453 31.8452 9.45887 40 20 40C31.0457 40 40 31.0457 40 20C40 9.45893 31.8451 0.822513 21.5 0.0554279C20.6739 -0.00583171 20 0.671592 20 1.50002C20 2.32845 20.6738 2.9931 21.4991 3.06521C30.1858 3.82419 37 11.1163 37 20Z" fill="#7646FF"/>
<path d="M10.1202 24L13.0534 18.1903V18.1442H9.62301V16.7273H14.8716V18.1548L11.9277 24H10.1202ZM18.623 24.0994C18.0927 24.0994 17.6216 24.0036 17.2097 23.8118C16.7978 23.62 16.4722 23.3561 16.2331 23.0199C15.9964 22.6837 15.8733 22.2978 15.8638 21.8622H17.5684C17.5826 22.1297 17.6915 22.3452 17.8951 22.5085C18.0987 22.6695 18.3413 22.75 18.623 22.75C18.8432 22.75 19.0385 22.7015 19.209 22.6044C19.3794 22.5073 19.5132 22.3712 19.6103 22.196C19.7073 22.0185 19.7547 21.8149 19.7523 21.5852C19.7547 21.3509 19.7061 21.1461 19.6067 20.9709C19.5096 20.7957 19.3747 20.6596 19.2019 20.5625C19.0314 20.4631 18.8349 20.4134 18.6124 20.4134C18.4017 20.411 18.2016 20.4571 18.0123 20.5518C17.8252 20.6465 17.6832 20.7756 17.5861 20.9389L16.0343 20.6477L16.3503 16.7273H21.0165V18.1442H17.7956L17.6287 19.8594H17.6713C17.7921 19.6581 17.9862 19.4924 18.2537 19.3622C18.5236 19.2296 18.8302 19.1634 19.1735 19.1634C19.6091 19.1634 19.9973 19.2652 20.3382 19.4688C20.6815 19.67 20.9514 19.9493 21.1479 20.3068C21.3468 20.6643 21.4462 21.0739 21.4462 21.5355C21.4462 22.035 21.3278 22.4777 21.0911 22.8636C20.8567 23.2495 20.5276 23.5526 20.1039 23.7727C19.6825 23.9905 19.1889 24.0994 18.623 24.0994ZM26.5844 22.6364V22.2528C26.5844 21.9545 26.6483 21.6787 26.7761 21.4254C26.9063 21.1721 27.0946 20.9685 27.3408 20.8146C27.587 20.6607 27.8876 20.5838 28.2428 20.5838C28.605 20.5838 28.9092 20.6607 29.1554 20.8146C29.404 20.9661 29.591 21.1686 29.7165 21.4219C29.8443 21.6728 29.9082 21.9498 29.9082 22.2528V22.6364C29.9082 22.9347 29.8443 23.2105 29.7165 23.4638C29.5886 23.7171 29.4004 23.9207 29.1518 24.0746C28.9033 24.2285 28.6002 24.3054 28.2428 24.3054C27.8829 24.3054 27.5799 24.2285 27.3337 24.0746C27.0875 23.9207 26.9004 23.7171 26.7726 23.4638C26.6471 23.2105 26.5844 22.9347 26.5844 22.6364ZM27.7172 22.2528V22.6364C27.7172 22.7879 27.7539 22.9335 27.8273 23.0732C27.903 23.2128 28.0415 23.2827 28.2428 23.2827C28.4487 23.2827 28.5872 23.2152 28.6582 23.0803C28.7293 22.9429 28.7648 22.795 28.7648 22.6364V22.2528C28.7648 22.0942 28.7304 21.9451 28.6618 21.8054C28.5955 21.6634 28.4558 21.5923 28.2428 21.5923C28.0439 21.5923 27.9066 21.6634 27.8308 21.8054C27.7551 21.9451 27.7172 22.0942 27.7172 22.2528ZM22.8131 18.4744V18.0909C22.8131 17.7879 22.8782 17.5109 23.0084 17.2599C23.141 17.0066 23.3303 16.8042 23.5766 16.6527C23.8228 16.4988 24.1211 16.4219 24.4714 16.4219C24.8337 16.4219 25.1379 16.4988 25.3841 16.6527C25.6327 16.8042 25.8209 17.0066 25.9487 17.2599C26.0766 17.5109 26.1405 17.7879 26.1405 18.0909V18.4744C26.1405 18.7775 26.0754 19.0545 25.9452 19.3054C25.8173 19.5563 25.6291 19.7564 25.3805 19.9055C25.132 20.0547 24.8289 20.1293 24.4714 20.1293C24.114 20.1293 23.8109 20.0535 23.5624 19.902C23.3161 19.7505 23.1291 19.5492 23.0013 19.2983C22.8758 19.0473 22.8131 18.7727 22.8131 18.4744ZM23.9565 18.0909V18.4744C23.9565 18.633 23.9932 18.781 24.0666 18.9183C24.1424 19.0533 24.2773 19.1207 24.4714 19.1207C24.6798 19.1207 24.8183 19.0533 24.8869 18.9183C24.958 18.781 24.9935 18.633 24.9935 18.4744V18.0909C24.9935 17.9323 24.9603 17.7831 24.894 17.6435C24.8277 17.5014 24.6869 17.4304 24.4714 17.4304C24.2726 17.4304 24.1365 17.5026 24.0631 17.647C23.992 17.7914 23.9565 17.9394 23.9565 18.0909ZM23.3493 24L28.3493 16.7273H29.3187L24.3187 24H23.3493Z" fill="#7646FF"/>
</svg>
