<svg width="24" height="24" viewBox="0 0 24 24" fill="none" xmlns="http://www.w3.org/2000/svg">
<path fill-rule="evenodd" clip-rule="evenodd" d="M7.00004 12C6.11532 12 5.66641 10.9356 6.28389 10.302L11.2839 4.30205C11.6764 3.89932 12.3237 3.89932 12.7162 4.30205L17.7162 10.302C18.3337 10.9356 17.8848 12 17 12L15 12V16C15 16.5523 14.5523 17 14 17H10C9.44776 17 9.00004 16.5523 9.00004 16V12H7.00004ZM12 5L7.00004 11H9.03071C9.583 11 10 11.4477 10 12V16H14V12C14 11.4477 14.4784 11 15.0307 11H17L12 5Z" fill="white"/>
<path fill-rule="evenodd" clip-rule="evenodd" d="M6 19.5C6 19.2239 6.22386 19 6.5 19H17.5C17.7761 19 18 19.2239 18 19.5C18 19.7761 17.7761 20 17.5 20H6.5C6.22386 20 6 19.7761 6 19.5Z" fill="white"/>
</svg>
