<svg width="24" height="24" viewBox="0 0 24 24" fill="none" xmlns="http://www.w3.org/2000/svg">
<path fill-rule="evenodd" clip-rule="evenodd" d="M4 5.88254C4 5.39512 4.4403 5 4.98345 5L10.6073 5.00001C11.0018 5.00001 11.3581 5.21157 11.5124 5.53741L12.1273 6.8361L17.9977 6.8361C18.5408 6.8361 18.9811 7.23123 18.9811 7.71864V9.57251H20.0157C20.6986 9.57251 21.1736 10.1818 20.9396 10.7575L17.9547 18.42C17.8131 18.7683 17.444 19 17.0308 19H4.49172C4.22015 19 4 18.8024 4 18.5587L4 5.88254ZM17.9977 9.57251V7.71864H12.1273C11.7328 7.71864 11.3765 7.50708 11.2222 7.18124L10.6073 5.88255L4.98344 5.88254L4.98345 15.5904L6.70167 10.1983C6.82761 9.8266 7.20964 9.57251 7.64259 9.57251H17.9977ZM5.15517 18.2381L17.0308 18.2381L20.0157 10.455H7.64259L5.15517 18.2381Z" fill="#292F33"/>
</svg>
