<svg width="24" height="24" viewBox="0 0 24 24" fill="none" xmlns="http://www.w3.org/2000/svg">
<path d="M11 13.5C11 13.7761 11.2239 14 11.5 14H15.4286C15.7047 14 15.9286 13.7761 15.9286 13.5C15.9286 13.2239 15.7047 13 15.4286 13H12V8C12 7.72386 11.7761 7.5 11.5 7.5C11.2239 7.5 11 7.72386 11 8V13.5ZM19.5 12C19.5 16.1421 16.1421 19.5 12 19.5C7.85786 19.5 4.5 16.1421 4.5 12C4.5 7.85786 7.85786 4.5 12 4.5C16.1421 4.5 19.5 7.85786 19.5 12Z" stroke="#292F33" stroke-linecap="round" stroke-linejoin="round"/>
</svg>
