<svg width="24" height="24" viewBox="0 0 24 24" fill="none" xmlns="http://www.w3.org/2000/svg">
<path fill-rule="evenodd" clip-rule="evenodd" d="M10.1176 4.9464C9.85775 4.9464 9.64706 5.15826 9.64706 5.4196V6.98706H14.3529V5.4196C14.3529 5.15826 14.1423 4.9464 13.8824 4.9464H10.1176ZM15.2941 6.98706V5.4196C15.2941 4.63558 14.662 4.00001 13.8824 4.00001H10.1176C9.33795 4.00001 8.70588 4.63558 8.70588 5.4196V6.98706H4.47059C4.21069 6.98706 4 7.19892 4 7.46026C4 7.7216 4.21069 7.93346 4.47059 7.93346H6V19.0536C6 19.5763 6.30373 20 6.82353 20H17.1765C17.6963 20 18 19.5763 18 19.0536V7.93346H19.5294C19.7893 7.93346 20 7.7216 20 7.46026C20 7.19892 19.7893 6.98706 19.5294 6.98706H15.2941ZM17.1765 7.93346H6.82353V19.0536H17.1765V7.93346ZM10.1176 9.58965C10.3775 9.58965 10.5882 9.8015 10.5882 10.0628V16.6876C10.5882 16.949 10.3775 17.1608 10.1176 17.1608C9.85775 17.1608 9.64706 16.949 9.64706 16.6876V10.0628C9.64706 9.8015 9.85775 9.58965 10.1176 9.58965ZM13.8824 9.58965C14.1423 9.58965 14.3529 9.8015 14.3529 10.0628V16.6876C14.3529 16.949 14.1423 17.1608 13.8824 17.1608C13.6225 17.1608 13.4118 16.949 13.4118 16.6876V10.0628C13.4118 9.8015 13.6225 9.58965 13.8824 9.58965Z" fill="#292F33"/>
</svg>
