<svg width="104" height="41" viewBox="0 0 104 41" fill="none" xmlns="http://www.w3.org/2000/svg">
<path d="M34.56 8.28H47.84V12.856H39.2V17.336H45.888V21.816H39.2V31H34.56V8.28ZM50.5115 15H54.8955V31H50.5115V15ZM50.6715 12.472C50.2448 12.0027 50.0315 11.416 50.0315 10.712C50.0315 9.96533 50.2875 9.336 50.7995 8.824C51.3328 8.29067 51.9728 8.024 52.7195 8.024C53.4662 8.024 54.0955 8.29067 54.6075 8.824C55.1408 9.336 55.4075 9.96533 55.4075 10.712C55.4075 11.416 55.1942 12.0027 54.7675 12.472H50.6715ZM58.7257 8.28H63.1097V31H58.7257V8.28ZM74.204 31.256C73.116 31.256 72.0813 31.0533 71.1 30.648C70.1187 30.2427 69.2547 29.6773 68.508 28.952C67.7613 28.2267 67.164 27.3627 66.716 26.36C66.268 25.336 66.044 24.216 66.044 23C66.044 21.8267 66.2467 20.7387 66.652 19.736C67.0573 18.712 67.612 17.8373 68.316 17.112C69.0413 16.3653 69.9053 15.7893 70.908 15.384C71.9107 14.9573 73.02 14.744 74.236 14.744C75.4307 14.744 76.5293 14.9573 77.532 15.384C78.5347 15.8107 79.388 16.4187 80.092 17.208C80.796 17.9973 81.308 18.9573 81.628 20.088C81.9693 21.1973 82.0653 22.4453 81.916 23.832H70.3C70.364 24.408 70.524 24.9093 70.78 25.336C71.036 25.7627 71.3453 26.1147 71.708 26.392C72.0707 26.6693 72.4653 26.8827 72.892 27.032C73.3187 27.16 73.7453 27.224 74.172 27.224C75.068 27.224 75.8147 27.0427 76.412 26.68C77.0307 26.296 77.5213 25.816 77.884 25.24L81.276 27.672C80.5293 28.76 79.548 29.6347 78.332 30.296C77.1373 30.936 75.7613 31.256 74.204 31.256ZM73.98 18.328C73.66 18.328 73.308 18.3707 72.924 18.456C72.5613 18.5413 72.2093 18.6907 71.868 18.904C71.5267 19.1173 71.2173 19.4053 70.94 19.768C70.684 20.1307 70.492 20.5787 70.364 21.112H77.564C77.4147 20.152 76.9987 19.448 76.316 19C75.6547 18.552 74.876 18.328 73.98 18.328ZM89.9282 31.256C88.5842 31.256 87.3789 31 86.3122 30.488C85.2456 29.9547 84.3709 29.0907 83.6882 27.896L87.0162 25.624C87.3789 26.2427 87.7949 26.7333 88.2642 27.096C88.7336 27.4587 89.3416 27.64 90.0882 27.64C90.5362 27.64 90.9096 27.5653 91.2082 27.416C91.5282 27.2453 91.6882 26.9787 91.6882 26.616C91.6882 26.2533 91.5282 25.9653 91.2082 25.752C90.9096 25.5387 90.3549 25.2827 89.5442 24.984L88.6162 24.6C87.2082 24.0667 86.1629 23.3733 85.4802 22.52C84.8189 21.6453 84.4882 20.6533 84.4882 19.544C84.4882 18.84 84.6269 18.2 84.9042 17.624C85.1816 17.0267 85.5549 16.5147 86.0242 16.088C86.5149 15.6613 87.0802 15.3307 87.7202 15.096C88.3816 14.8613 89.0962 14.744 89.8642 14.744C90.8882 14.744 91.8269 14.9573 92.6802 15.384C93.5549 15.7893 94.2802 16.44 94.8562 17.336L92.2322 19.736C91.9336 19.288 91.5922 18.936 91.2082 18.68C90.8456 18.4027 90.3976 18.264 89.8642 18.264C89.4802 18.264 89.1496 18.3493 88.8722 18.52C88.6162 18.6693 88.4882 18.904 88.4882 19.224C88.4882 19.5867 88.6376 19.8747 88.9362 20.088C89.2349 20.3013 89.8002 20.568 90.6322 20.888L91.4322 21.176C92.9256 21.7307 94.0029 22.424 94.6642 23.256C95.3469 24.0667 95.6882 25.0693 95.6882 26.264C95.6882 27.0533 95.5389 27.7573 95.2402 28.376C94.9629 28.9947 94.5682 29.5173 94.0562 29.944C93.5442 30.3707 92.9362 30.7013 92.2322 30.936C91.5282 31.1493 90.7602 31.256 89.9282 31.256Z" fill="#7646FF"/>
</svg>
