<svg width="27" height="26" viewBox="0 0 27 26" fill="none" xmlns="http://www.w3.org/2000/svg">
<path fill-rule="evenodd" clip-rule="evenodd" d="M9.43122 2.47856C10.0717 1.30778 11.0966 0.517178 12.2406 0.18177C12.6557 0.0592713 13.0792 -0.000225494 13.5 6.44123e-07C13.9199 -0.000225494 14.3429 0.0590904 14.7574 0.18116C15.9021 0.516205 16.9279 1.30705 17.5688 2.47856L26.3701 18.5659C27.6668 20.9361 26.8973 23.9669 24.6513 25.3352C22.4053 26.7037 19.5335 25.8916 18.2368 23.5214L17.3185 21.8431C15.6667 18.8239 11.3333 18.8239 9.68145 21.8431L8.76324 23.5214C7.4666 25.8916 4.59466 26.7037 2.34867 25.3352C0.102727 23.9669 -0.66682 20.9361 0.629916 18.5659L9.43122 2.47856ZM13.5 16.082C15.9164 16.082 17.8752 14.1419 17.8752 11.7487C17.8752 9.35542 15.9164 7.41534 13.5 7.41534C11.0836 7.41534 9.12481 9.35542 9.12481 11.7487C9.12481 14.1419 11.0836 16.082 13.5 16.082Z" fill="#7646FF"/>
</svg>
