<svg width="51" height="33" viewBox="0 0 51 33" fill="none" xmlns="http://www.w3.org/2000/svg">
<path fill-rule="evenodd" clip-rule="evenodd" d="M27.9554 20.8817H0.633789L20.3703 1.81813C22.0522 0.193665 24.4706 -0.340231 26.6807 0.424306C28.8903 1.18932 30.4602 3.10422 30.7772 5.42109L33.9303 28.4436C34.0247 29.1312 34.4742 29.6732 35.1324 29.892C35.7906 30.1117 36.4754 29.9466 36.9633 29.4535L45.4259 20.8817H35.7337L35.4096 18.787H50.4369L38.4539 30.9246C37.7098 31.6787 36.7222 32.0812 35.7057 32.0812C35.2942 32.0812 34.8776 32.0147 34.4709 31.8795C33.0595 31.4101 32.0572 30.2023 31.855 28.7278L28.7019 5.70583C28.4893 4.15113 27.4775 2.91724 25.995 2.40423C24.5129 1.89026 22.9544 2.23528 21.8254 3.3249L5.81708 18.787H27.6607L27.9554 20.8817ZM44.7909 9.9637H42.8902V0.106817H44.7909L48.3958 6.5705H48.4238V0.106817H50.3387V9.9637H48.466L44.8194 3.50002H44.7909V9.9637Z" fill="black"/>
</svg>
