<svg width="24" height="24" viewBox="0 0 24 24" fill="none" xmlns="http://www.w3.org/2000/svg">
<path fill-rule="evenodd" clip-rule="evenodd" d="M12.9997 5.09948C12.9997 5.09948 12.9981 5.10588 12.9981 5.11492L12.9981 7.53429C12.9981 8.16047 12.5432 8.65299 12 8.65193C9.81486 8.64765 8.38525 8.91721 7.03068 10.2926C5.68979 11.6542 4.79475 14.176 4.97904 18.913C4.97918 18.9166 4.97943 18.9195 4.97971 18.9218L4.98267 18.9226C4.99143 18.9246 4.9988 18.9229 5.00257 18.921C5.00257 18.921 5.00565 18.9192 5.00766 18.9171C5.00954 18.9151 5.01422 18.9097 5.01996 18.8976C6.28171 16.2402 7.28154 14.7249 8.44035 13.9021C9.61399 13.0687 10.3816 13.05 12.0071 13.0413C12.5526 13.0384 12.9981 13.537 12.9981 14.153V16.662C12.9981 16.6705 12.9997 16.6768 12.9997 16.6768L13.0017 16.6816C13.0037 16.6848 13.0085 16.6905 13.017 16.6948C13.0254 16.699 13.0324 16.6993 13.0358 16.6988L13.0403 16.6973C13.0403 16.6973 13.0456 16.6944 13.0512 16.6887L19.0343 11.1111C19.048 11.0972 19.0485 11.0731 19.0353 11.0586L13.0522 5.08922C13.0464 5.08291 13.0412 5.07974 13.0412 5.07974L13.037 5.07817C13.0337 5.07756 13.0266 5.07757 13.0176 5.08185C13.0086 5.08612 13.0036 5.09188 13.0017 5.09498L12.9997 5.09948ZM12.043 5.11492C12.043 4.13046 13.0936 3.63097 13.7189 4.31813L19.7019 10.2875C20.1114 10.7375 20.0971 11.4843 19.6708 11.9139L13.6877 17.4916C13.0518 18.1324 12.043 17.6235 12.043 16.662V14.153C12.043 14.1442 12.0403 14.1361 12.0337 14.1286C12.0271 14.1212 12.0197 14.1181 12.0116 14.1181C10.3703 14.1269 9.86502 14.163 8.94936 14.8132C8.01886 15.4739 7.11691 16.7629 5.86202 19.4058C5.6329 19.8883 5.18427 20.0658 4.79613 19.9787C4.40309 19.8904 4.04674 19.5229 4.02484 18.9602C3.83542 14.0912 4.73927 11.1702 6.39148 9.49252C8.03001 7.82876 9.7837 7.57078 12.0017 7.57513C12.0142 7.57515 12.0246 7.56996 12.0326 7.56113C12.0402 7.55266 12.043 7.54393 12.043 7.53429L12.043 5.11492Z" fill="#292F33"/>
</svg>
